<?xml version="1.0" encoding="utf-8"?>
<!-- Generator: Adobe Illustrator 15.0.0, SVG Export Plug-In . SVG Version: 6.00 Build 0)  -->
<!DOCTYPE svg PUBLIC "-//W3C//DTD SVG 1.1//EN" "http://www.w3.org/Graphics/SVG/1.1/DTD/svg11.dtd">
<svg version="1.1" xmlns="http://www.w3.org/2000/svg" xmlns:xlink="http://www.w3.org/1999/xlink" x="0px" y="0px" width="430px"
	 height="568px" viewBox="0 0 430 568" enable-background="new 0 0 430 568" xml:space="preserve">
<g id="Layer_2" display="none">
	<rect y="-0.335" display="inline" fill="#FFFFFF" width="430" height="567"/>
</g>
<g id="Layer_1" display="none">
	<path display="inline" d="M322.129,212.402c1.371,37.708-45.1,52.537-65.398,24.13c-25.933-36.322,0.536-75.458,4.232-113.911
		c4.62-48.185-23.071-94.954-57.439-122.958c18.928,33.385-6.021,77.56-25.963,102.241c-19.345,23.936-42.863,43.922-64.235,65.667
		c-22.922,23.369-44.98,47.96-63.848,75.369C11.77,297.817-11.301,366.807,5.66,435.275c16.96,68.41,71.3,111.959,132.674,127.354
		c-30.971-14.591-59.944-51.671-60.003-89.633c-0.09-41.373,23.965-76.486,53.863-99.572c-3.577,14.814-5.544,28.362,3.368,41.611
		c8.257,12.311,22.773,18.287,36.485,15.053c31.983-7.63,33.443-45.993,14.486-68.349c-18.779-22.117-36.902-47.126-29.778-79.214
		c3.577-16.081,12.639-31.149,24.114-41.91c-8.822,25.277,16.245,50.196,32.759,62.611c28.646,21.536,60.093,37.826,86.442,63.073
		c27.692,26.529,48.171,62.417,44.027,104.03c-4.472,45.113-37.351,76.486-74.223,92.329
		c77.919-18.749,158.43-84.684,160.099-178.922C431.314,306.208,382.55,246.548,322.129,212.402"/>
</g>
<g id="Layer_2_copy">
</g>
<g id="Layer_1_copy">
	<path fill="#FFFFFF" d="M203.523-0.335c34.369,28.004,62.06,74.772,57.44,122.958c-3.696,38.452-30.165,77.588-4.232,113.91
		c20.299,28.406,66.77,13.577,65.398-24.13c60.42,34.146,109.185,93.805,107.844,171.335
		c-1.669,94.238-82.18,160.172-160.098,178.921c36.872-15.843,69.75-47.216,74.222-92.329c4.144-41.613-16.335-77.501-44.026-104.03
		c-26.35-25.247-57.797-41.537-86.443-63.073c-16.514-12.415-41.581-37.334-32.759-62.611
		c-11.476,10.761-20.537,25.829-24.114,41.91c-7.124,32.088,10.999,57.097,29.778,79.214c18.957,22.355,17.497,60.718-14.486,68.348
		c-13.711,3.234-28.228-2.742-36.485-15.053c-8.912-13.249-6.945-26.797-3.368-41.611c-29.897,23.085-53.953,58.199-53.863,99.572
		c0.06,37.962,29.033,75.042,60.003,89.633C76.959,547.233,22.62,503.684,5.66,435.274c-16.961-68.467,6.11-137.458,43.817-192.333
		c18.868-27.409,40.926-52,63.848-75.369c21.372-21.745,44.891-41.731,64.235-65.667C197.501,77.224,222.451,33.049,203.523-0.335H0
		v567h430v-567H203.523z"/>
</g>
</svg>
